<mxfile host="app.diagrams.net" modified="2020-12-30T03:12:34.500Z" agent="5.0 (Windows NT 10.0; Win64; x64) AppleWebKit/537.36 (KHTML, like Gecko) Chrome/86.0.4240.198 Safari/537.36" etag="pBvc_x1v3PPTxU9U0ERk" version="14.1.1" type="github">
  <diagram id="uDYtTo3MC-Vrlo2GXwv1" name="第 1 页">
    <mxGraphModel dx="1221" dy="645" grid="1" gridSize="10" guides="1" tooltips="1" connect="1" arrows="1" fold="1" page="1" pageScale="1" pageWidth="850" pageHeight="1100" math="0" shadow="0">
      <root>
        <mxCell id="0" />
        <mxCell id="1" parent="0" />
        <mxCell id="fY21hBZiSp-cvhp-OEF5-34" value="" style="rounded=0;whiteSpace=wrap;html=1;" vertex="1" parent="1">
          <mxGeometry x="120" y="70" width="790" height="460" as="geometry" />
        </mxCell>
        <mxCell id="fY21hBZiSp-cvhp-OEF5-33" value="" style="rounded=0;whiteSpace=wrap;html=1;" vertex="1" parent="1">
          <mxGeometry x="140" y="110" width="740" height="400" as="geometry" />
        </mxCell>
        <mxCell id="fY21hBZiSp-cvhp-OEF5-9" value="&lt;font style=&quot;font-weight: normal ; font-size: 18px&quot;&gt;I9900003直接识别返回数据&lt;/font&gt;" style="text;strokeColor=#d79b00;fillColor=#ffe6cc;html=1;fontSize=24;fontStyle=1;verticalAlign=middle;align=center;" vertex="1" parent="1">
          <mxGeometry x="120" y="70" width="790" height="30" as="geometry" />
        </mxCell>
        <mxCell id="fY21hBZiSp-cvhp-OEF5-12" value="&lt;font style=&quot;font-size: 18px ; font-weight: normal&quot;&gt;综合运营平台&lt;/font&gt;" style="text;strokeColor=#d79b00;html=1;fontSize=24;fontStyle=1;verticalAlign=middle;align=center;fillColor=#ffe6cc;" vertex="1" parent="1">
          <mxGeometry x="140" y="110" width="370" height="30" as="geometry" />
        </mxCell>
        <mxCell id="fY21hBZiSp-cvhp-OEF5-14" value="&lt;font style=&quot;font-size: 18px ; font-weight: normal&quot;&gt;智能中心&lt;/font&gt;" style="text;strokeColor=#d79b00;html=1;fontSize=24;fontStyle=1;verticalAlign=middle;align=center;fillColor=#ffe6cc;" vertex="1" parent="1">
          <mxGeometry x="510" y="110" width="370" height="30" as="geometry" />
        </mxCell>
        <mxCell id="fY21hBZiSp-cvhp-OEF5-15" value="&lt;font style=&quot;font-size: 18px&quot;&gt;开始&lt;/font&gt;" style="strokeWidth=2;html=1;shape=mxgraph.flowchart.start_1;whiteSpace=wrap;" vertex="1" parent="1">
          <mxGeometry x="265" y="160" width="120" height="40" as="geometry" />
        </mxCell>
        <mxCell id="fY21hBZiSp-cvhp-OEF5-17" value="&lt;font color=&quot;#ff0000&quot;&gt;&lt;span style=&quot;font-size: 18px&quot;&gt;I9900003（智能服务&lt;/span&gt;&lt;span style=&quot;font-size: 18px&quot;&gt;）&lt;/span&gt;&lt;/font&gt;" style="rounded=0;whiteSpace=wrap;html=1;" vertex="1" parent="1">
          <mxGeometry x="635" y="240" width="120" height="60" as="geometry" />
        </mxCell>
        <mxCell id="fY21hBZiSp-cvhp-OEF5-22" value="&lt;font style=&quot;font-size: 18px&quot;&gt;业务受理&lt;/font&gt;" style="rounded=0;whiteSpace=wrap;html=1;" vertex="1" parent="1">
          <mxGeometry x="265" y="240" width="120" height="60" as="geometry" />
        </mxCell>
        <mxCell id="fY21hBZiSp-cvhp-OEF5-23" value="" style="endArrow=classic;html=1;strokeColor=#000000;exitX=0.5;exitY=1;exitDx=0;exitDy=0;exitPerimeter=0;" edge="1" parent="1" source="fY21hBZiSp-cvhp-OEF5-15" target="fY21hBZiSp-cvhp-OEF5-22">
          <mxGeometry width="50" height="50" relative="1" as="geometry">
            <mxPoint x="520" y="260" as="sourcePoint" />
            <mxPoint x="570" y="210" as="targetPoint" />
          </mxGeometry>
        </mxCell>
        <mxCell id="fY21hBZiSp-cvhp-OEF5-24" value="" style="endArrow=classic;html=1;strokeColor=#000000;exitX=1;exitY=0.5;exitDx=0;exitDy=0;entryX=0;entryY=0.5;entryDx=0;entryDy=0;" edge="1" parent="1" source="fY21hBZiSp-cvhp-OEF5-22" target="fY21hBZiSp-cvhp-OEF5-17">
          <mxGeometry width="50" height="50" relative="1" as="geometry">
            <mxPoint x="520" y="260" as="sourcePoint" />
            <mxPoint x="570" y="210" as="targetPoint" />
          </mxGeometry>
        </mxCell>
        <mxCell id="fY21hBZiSp-cvhp-OEF5-25" value="&lt;span style=&quot;font-size: 18px&quot;&gt;识别证件信息&lt;/span&gt;" style="edgeLabel;html=1;align=center;verticalAlign=middle;resizable=0;points=[];" vertex="1" connectable="0" parent="fY21hBZiSp-cvhp-OEF5-24">
          <mxGeometry x="-0.384" y="-1" relative="1" as="geometry">
            <mxPoint x="48" y="-1" as="offset" />
          </mxGeometry>
        </mxCell>
        <mxCell id="fY21hBZiSp-cvhp-OEF5-29" value="" style="endArrow=classic;html=1;strokeColor=#000000;entryX=1;entryY=0.5;entryDx=0;entryDy=0;exitX=0.5;exitY=1;exitDx=0;exitDy=0;rounded=0;" edge="1" parent="1" source="fY21hBZiSp-cvhp-OEF5-17">
          <mxGeometry width="50" height="50" relative="1" as="geometry">
            <mxPoint x="520" y="350" as="sourcePoint" />
            <mxPoint x="385" y="380" as="targetPoint" />
            <Array as="points">
              <mxPoint x="695" y="380" />
            </Array>
          </mxGeometry>
        </mxCell>
        <mxCell id="fY21hBZiSp-cvhp-OEF5-31" value="&lt;font style=&quot;font-size: 18px&quot;&gt;直接返回证件信息&lt;/font&gt;" style="edgeLabel;html=1;align=center;verticalAlign=middle;resizable=0;points=[];" vertex="1" connectable="0" parent="fY21hBZiSp-cvhp-OEF5-29">
          <mxGeometry x="0.159" y="-1" relative="1" as="geometry">
            <mxPoint as="offset" />
          </mxGeometry>
        </mxCell>
        <mxCell id="fY21hBZiSp-cvhp-OEF5-32" value="&lt;font style=&quot;font-size: 18px&quot;&gt;结束&lt;/font&gt;" style="strokeWidth=2;html=1;shape=mxgraph.flowchart.start_1;whiteSpace=wrap;" vertex="1" parent="1">
          <mxGeometry x="265" y="360" width="120" height="40" as="geometry" />
        </mxCell>
        <mxCell id="fY21hBZiSp-cvhp-OEF5-35" value="" style="endArrow=none;html=1;entryX=1;entryY=0.25;entryDx=0;entryDy=0;exitX=0.5;exitY=1;exitDx=0;exitDy=0;strokeColor=#FF9999;" edge="1" parent="1" source="fY21hBZiSp-cvhp-OEF5-33" target="fY21hBZiSp-cvhp-OEF5-12">
          <mxGeometry width="50" height="50" relative="1" as="geometry">
            <mxPoint x="520" y="310" as="sourcePoint" />
            <mxPoint x="570" y="260" as="targetPoint" />
          </mxGeometry>
        </mxCell>
        <mxCell id="fY21hBZiSp-cvhp-OEF5-37" value="" style="rounded=0;whiteSpace=wrap;html=1;" vertex="1" parent="1">
          <mxGeometry x="180" y="710" width="790" height="460" as="geometry" />
        </mxCell>
        <mxCell id="fY21hBZiSp-cvhp-OEF5-38" value="" style="rounded=0;whiteSpace=wrap;html=1;" vertex="1" parent="1">
          <mxGeometry x="200" y="750" width="740" height="400" as="geometry" />
        </mxCell>
        <mxCell id="fY21hBZiSp-cvhp-OEF5-39" value="&lt;font style=&quot;font-weight: normal ; font-size: 18px&quot;&gt;I9900009校验规则信息&lt;/font&gt;" style="text;strokeColor=#d79b00;fillColor=#ffe6cc;html=1;fontSize=24;fontStyle=1;verticalAlign=middle;align=center;" vertex="1" parent="1">
          <mxGeometry x="180" y="710" width="790" height="30" as="geometry" />
        </mxCell>
        <mxCell id="fY21hBZiSp-cvhp-OEF5-40" value="&lt;font style=&quot;font-size: 18px ; font-weight: normal&quot;&gt;综合运营平台&lt;/font&gt;" style="text;strokeColor=#d79b00;html=1;fontSize=24;fontStyle=1;verticalAlign=middle;align=center;fillColor=#ffe6cc;" vertex="1" parent="1">
          <mxGeometry x="200" y="750" width="370" height="30" as="geometry" />
        </mxCell>
        <mxCell id="fY21hBZiSp-cvhp-OEF5-41" value="&lt;font style=&quot;font-size: 18px ; font-weight: normal&quot;&gt;智能中心&lt;/font&gt;" style="text;strokeColor=#d79b00;html=1;fontSize=24;fontStyle=1;verticalAlign=middle;align=center;fillColor=#ffe6cc;" vertex="1" parent="1">
          <mxGeometry x="570" y="750" width="370" height="30" as="geometry" />
        </mxCell>
        <mxCell id="fY21hBZiSp-cvhp-OEF5-42" value="&lt;font style=&quot;font-size: 18px&quot;&gt;开始&lt;/font&gt;" style="strokeWidth=2;html=1;shape=mxgraph.flowchart.start_1;whiteSpace=wrap;" vertex="1" parent="1">
          <mxGeometry x="325" y="800" width="120" height="40" as="geometry" />
        </mxCell>
        <mxCell id="fY21hBZiSp-cvhp-OEF5-43" value="&lt;font color=&quot;#ff0000&quot;&gt;&lt;span style=&quot;font-size: 18px&quot;&gt;I9000009（校验规则信息&lt;/span&gt;&lt;span style=&quot;font-size: 18px&quot;&gt;）&lt;/span&gt;&lt;/font&gt;" style="rounded=0;whiteSpace=wrap;html=1;" vertex="1" parent="1">
          <mxGeometry x="695" y="880" width="120" height="60" as="geometry" />
        </mxCell>
        <mxCell id="fY21hBZiSp-cvhp-OEF5-44" value="&lt;font style=&quot;font-size: 18px&quot;&gt;业务受理&lt;/font&gt;" style="rounded=0;whiteSpace=wrap;html=1;" vertex="1" parent="1">
          <mxGeometry x="325" y="880" width="120" height="60" as="geometry" />
        </mxCell>
        <mxCell id="fY21hBZiSp-cvhp-OEF5-45" value="" style="endArrow=classic;html=1;strokeColor=#000000;exitX=0.5;exitY=1;exitDx=0;exitDy=0;exitPerimeter=0;" edge="1" parent="1" source="fY21hBZiSp-cvhp-OEF5-42" target="fY21hBZiSp-cvhp-OEF5-44">
          <mxGeometry width="50" height="50" relative="1" as="geometry">
            <mxPoint x="580" y="900" as="sourcePoint" />
            <mxPoint x="630" y="850" as="targetPoint" />
          </mxGeometry>
        </mxCell>
        <mxCell id="fY21hBZiSp-cvhp-OEF5-46" value="" style="endArrow=classic;html=1;strokeColor=#000000;exitX=1;exitY=0.5;exitDx=0;exitDy=0;entryX=0;entryY=0.5;entryDx=0;entryDy=0;" edge="1" parent="1" source="fY21hBZiSp-cvhp-OEF5-44" target="fY21hBZiSp-cvhp-OEF5-43">
          <mxGeometry width="50" height="50" relative="1" as="geometry">
            <mxPoint x="580" y="900" as="sourcePoint" />
            <mxPoint x="630" y="850" as="targetPoint" />
          </mxGeometry>
        </mxCell>
        <mxCell id="fY21hBZiSp-cvhp-OEF5-47" value="&lt;span style=&quot;font-size: 18px&quot;&gt;证件信息校验比对&lt;/span&gt;" style="edgeLabel;html=1;align=center;verticalAlign=middle;resizable=0;points=[];" vertex="1" connectable="0" parent="fY21hBZiSp-cvhp-OEF5-46">
          <mxGeometry x="-0.384" y="-1" relative="1" as="geometry">
            <mxPoint x="48" y="-1" as="offset" />
          </mxGeometry>
        </mxCell>
        <mxCell id="fY21hBZiSp-cvhp-OEF5-48" value="" style="endArrow=classic;html=1;strokeColor=#000000;entryX=1;entryY=0.5;entryDx=0;entryDy=0;exitX=0.5;exitY=1;exitDx=0;exitDy=0;rounded=0;" edge="1" parent="1" source="fY21hBZiSp-cvhp-OEF5-43">
          <mxGeometry width="50" height="50" relative="1" as="geometry">
            <mxPoint x="580" y="990" as="sourcePoint" />
            <mxPoint x="445" y="1020" as="targetPoint" />
            <Array as="points">
              <mxPoint x="755" y="1020" />
            </Array>
          </mxGeometry>
        </mxCell>
        <mxCell id="fY21hBZiSp-cvhp-OEF5-49" value="&lt;font style=&quot;font-size: 18px&quot;&gt;返回比对结果&lt;/font&gt;" style="edgeLabel;html=1;align=center;verticalAlign=middle;resizable=0;points=[];" vertex="1" connectable="0" parent="fY21hBZiSp-cvhp-OEF5-48">
          <mxGeometry x="0.159" y="-1" relative="1" as="geometry">
            <mxPoint x="-39" as="offset" />
          </mxGeometry>
        </mxCell>
        <mxCell id="fY21hBZiSp-cvhp-OEF5-50" value="&lt;font style=&quot;font-size: 18px&quot;&gt;结束&lt;/font&gt;" style="strokeWidth=2;html=1;shape=mxgraph.flowchart.start_1;whiteSpace=wrap;" vertex="1" parent="1">
          <mxGeometry x="325" y="1000" width="120" height="40" as="geometry" />
        </mxCell>
        <mxCell id="fY21hBZiSp-cvhp-OEF5-51" value="" style="endArrow=none;html=1;entryX=1;entryY=0.25;entryDx=0;entryDy=0;exitX=0.5;exitY=1;exitDx=0;exitDy=0;strokeColor=#FF9999;" edge="1" parent="1" source="fY21hBZiSp-cvhp-OEF5-38" target="fY21hBZiSp-cvhp-OEF5-40">
          <mxGeometry width="50" height="50" relative="1" as="geometry">
            <mxPoint x="580" y="950" as="sourcePoint" />
            <mxPoint x="630" y="900" as="targetPoint" />
          </mxGeometry>
        </mxCell>
        <mxCell id="fY21hBZiSp-cvhp-OEF5-52" value="" style="rounded=0;whiteSpace=wrap;html=1;" vertex="1" parent="1">
          <mxGeometry x="140" y="1300" width="780" height="640" as="geometry" />
        </mxCell>
        <mxCell id="fY21hBZiSp-cvhp-OEF5-53" value="" style="rounded=0;whiteSpace=wrap;html=1;" vertex="1" parent="1">
          <mxGeometry x="160" y="1340" width="740" height="590" as="geometry" />
        </mxCell>
        <mxCell id="fY21hBZiSp-cvhp-OEF5-54" value="&lt;font style=&quot;font-weight: normal ; font-size: 18px&quot;&gt;I9900001智能审核&lt;/font&gt;" style="text;strokeColor=#d79b00;fillColor=#ffe6cc;html=1;fontSize=24;fontStyle=1;verticalAlign=middle;align=center;" vertex="1" parent="1">
          <mxGeometry x="140" y="1300" width="780" height="30" as="geometry" />
        </mxCell>
        <mxCell id="fY21hBZiSp-cvhp-OEF5-55" value="&lt;font style=&quot;font-size: 18px ; font-weight: normal&quot;&gt;综合运营平台&lt;/font&gt;" style="text;strokeColor=#d79b00;html=1;fontSize=24;fontStyle=1;verticalAlign=middle;align=center;fillColor=#ffe6cc;" vertex="1" parent="1">
          <mxGeometry x="160" y="1340" width="370" height="30" as="geometry" />
        </mxCell>
        <mxCell id="fY21hBZiSp-cvhp-OEF5-56" value="&lt;font style=&quot;font-size: 18px ; font-weight: normal&quot;&gt;智能中心&lt;/font&gt;" style="text;strokeColor=#d79b00;html=1;fontSize=24;fontStyle=1;verticalAlign=middle;align=center;fillColor=#ffe6cc;" vertex="1" parent="1">
          <mxGeometry x="530" y="1340" width="370" height="30" as="geometry" />
        </mxCell>
        <mxCell id="fY21hBZiSp-cvhp-OEF5-57" value="&lt;font style=&quot;font-size: 18px&quot;&gt;开始&lt;/font&gt;" style="strokeWidth=2;html=1;shape=mxgraph.flowchart.start_1;whiteSpace=wrap;" vertex="1" parent="1">
          <mxGeometry x="285" y="1390" width="120" height="40" as="geometry" />
        </mxCell>
        <mxCell id="fY21hBZiSp-cvhp-OEF5-58" value="&lt;font color=&quot;#ff0000&quot;&gt;&lt;span style=&quot;font-size: 18px&quot;&gt;I9000001（智能审核&lt;/span&gt;&lt;span style=&quot;font-size: 18px&quot;&gt;）&lt;/span&gt;&lt;/font&gt;" style="rounded=0;whiteSpace=wrap;html=1;" vertex="1" parent="1">
          <mxGeometry x="655" y="1470" width="120" height="60" as="geometry" />
        </mxCell>
        <mxCell id="fY21hBZiSp-cvhp-OEF5-59" value="&lt;font style=&quot;font-size: 18px&quot;&gt;业务提交&lt;/font&gt;" style="rounded=0;whiteSpace=wrap;html=1;" vertex="1" parent="1">
          <mxGeometry x="285" y="1470" width="120" height="60" as="geometry" />
        </mxCell>
        <mxCell id="fY21hBZiSp-cvhp-OEF5-60" value="" style="endArrow=classic;html=1;strokeColor=#000000;exitX=0.5;exitY=1;exitDx=0;exitDy=0;exitPerimeter=0;" edge="1" parent="1" source="fY21hBZiSp-cvhp-OEF5-57" target="fY21hBZiSp-cvhp-OEF5-59">
          <mxGeometry width="50" height="50" relative="1" as="geometry">
            <mxPoint x="540" y="1490" as="sourcePoint" />
            <mxPoint x="590" y="1440" as="targetPoint" />
          </mxGeometry>
        </mxCell>
        <mxCell id="fY21hBZiSp-cvhp-OEF5-61" value="" style="endArrow=classic;html=1;strokeColor=#000000;exitX=1;exitY=0.5;exitDx=0;exitDy=0;entryX=0;entryY=0.5;entryDx=0;entryDy=0;" edge="1" parent="1" source="fY21hBZiSp-cvhp-OEF5-59" target="fY21hBZiSp-cvhp-OEF5-58">
          <mxGeometry width="50" height="50" relative="1" as="geometry">
            <mxPoint x="540" y="1490" as="sourcePoint" />
            <mxPoint x="590" y="1440" as="targetPoint" />
          </mxGeometry>
        </mxCell>
        <mxCell id="fY21hBZiSp-cvhp-OEF5-62" value="&lt;span style=&quot;font-size: 18px&quot;&gt;智能审核&lt;/span&gt;" style="edgeLabel;html=1;align=center;verticalAlign=middle;resizable=0;points=[];" vertex="1" connectable="0" parent="fY21hBZiSp-cvhp-OEF5-61">
          <mxGeometry x="-0.384" y="-1" relative="1" as="geometry">
            <mxPoint x="48" y="-1" as="offset" />
          </mxGeometry>
        </mxCell>
        <mxCell id="fY21hBZiSp-cvhp-OEF5-63" value="" style="endArrow=classic;html=1;strokeColor=#000000;exitX=0.5;exitY=1;exitDx=0;exitDy=0;rounded=0;entryX=1;entryY=0.5;entryDx=0;entryDy=0;" edge="1" parent="1" source="fY21hBZiSp-cvhp-OEF5-79" target="fY21hBZiSp-cvhp-OEF5-69">
          <mxGeometry width="50" height="50" relative="1" as="geometry">
            <mxPoint x="540" y="1580" as="sourcePoint" />
            <mxPoint x="430" y="1610" as="targetPoint" />
            <Array as="points">
              <mxPoint x="715" y="1690" />
            </Array>
          </mxGeometry>
        </mxCell>
        <mxCell id="fY21hBZiSp-cvhp-OEF5-68" value="&lt;font style=&quot;font-size: 18px&quot;&gt;返回审核结果&lt;/font&gt;" style="edgeLabel;html=1;align=center;verticalAlign=middle;resizable=0;points=[];" vertex="1" connectable="0" parent="fY21hBZiSp-cvhp-OEF5-63">
          <mxGeometry x="-0.0718" y="-2" relative="1" as="geometry">
            <mxPoint x="-84" y="2" as="offset" />
          </mxGeometry>
        </mxCell>
        <mxCell id="fY21hBZiSp-cvhp-OEF5-65" value="&lt;font style=&quot;font-size: 18px&quot;&gt;结束&lt;/font&gt;" style="strokeWidth=2;html=1;shape=mxgraph.flowchart.start_1;whiteSpace=wrap;" vertex="1" parent="1">
          <mxGeometry x="285" y="1880" width="120" height="40" as="geometry" />
        </mxCell>
        <mxCell id="fY21hBZiSp-cvhp-OEF5-66" value="" style="endArrow=none;html=1;entryX=1;entryY=0.25;entryDx=0;entryDy=0;exitX=0.5;exitY=1;exitDx=0;exitDy=0;strokeColor=#FF9999;" edge="1" parent="1" source="fY21hBZiSp-cvhp-OEF5-53" target="fY21hBZiSp-cvhp-OEF5-55">
          <mxGeometry width="50" height="50" relative="1" as="geometry">
            <mxPoint x="540" y="1540" as="sourcePoint" />
            <mxPoint x="590" y="1490" as="targetPoint" />
          </mxGeometry>
        </mxCell>
        <mxCell id="fY21hBZiSp-cvhp-OEF5-69" value="&lt;font style=&quot;font-size: 18px&quot;&gt;是否查看结果详情&lt;/font&gt;" style="rhombus;whiteSpace=wrap;html=1;" vertex="1" parent="1">
          <mxGeometry x="230" y="1650" width="205" height="80" as="geometry" />
        </mxCell>
        <mxCell id="fY21hBZiSp-cvhp-OEF5-71" value="" style="edgeStyle=elbowEdgeStyle;elbow=vertical;endArrow=classic;html=1;exitX=0;exitY=0.5;exitDx=0;exitDy=0;entryX=0;entryY=0.5;entryDx=0;entryDy=0;entryPerimeter=0;rounded=0;" edge="1" parent="1" source="fY21hBZiSp-cvhp-OEF5-69" target="fY21hBZiSp-cvhp-OEF5-65">
          <mxGeometry width="50" height="50" relative="1" as="geometry">
            <mxPoint x="550" y="1730" as="sourcePoint" />
            <mxPoint x="600" y="1680" as="targetPoint" />
            <Array as="points">
              <mxPoint x="200" y="1753" />
            </Array>
          </mxGeometry>
        </mxCell>
        <mxCell id="fY21hBZiSp-cvhp-OEF5-72" value="&lt;font style=&quot;font-size: 18px&quot;&gt;否&lt;/font&gt;" style="edgeLabel;html=1;align=center;verticalAlign=middle;resizable=0;points=[];" vertex="1" connectable="0" parent="fY21hBZiSp-cvhp-OEF5-71">
          <mxGeometry x="-0.5887" y="-2" relative="1" as="geometry">
            <mxPoint as="offset" />
          </mxGeometry>
        </mxCell>
        <mxCell id="fY21hBZiSp-cvhp-OEF5-73" value="&lt;font color=&quot;#ff0000&quot;&gt;&lt;span style=&quot;font-size: 18px&quot;&gt;I9000007（智能审核结果明细查询&lt;/span&gt;&lt;span style=&quot;font-size: 18px&quot;&gt;）&lt;/span&gt;&lt;/font&gt;" style="rounded=0;whiteSpace=wrap;html=1;" vertex="1" parent="1">
          <mxGeometry x="655" y="1780" width="120" height="60" as="geometry" />
        </mxCell>
        <mxCell id="fY21hBZiSp-cvhp-OEF5-75" value="" style="endArrow=classic;html=1;strokeColor=#000000;exitX=0.5;exitY=1;exitDx=0;exitDy=0;entryX=0;entryY=0.5;entryDx=0;entryDy=0;rounded=0;" edge="1" parent="1" source="fY21hBZiSp-cvhp-OEF5-69" target="fY21hBZiSp-cvhp-OEF5-73">
          <mxGeometry width="50" height="50" relative="1" as="geometry">
            <mxPoint x="405" y="1719.5" as="sourcePoint" />
            <mxPoint x="655" y="1719.5" as="targetPoint" />
            <Array as="points">
              <mxPoint x="333" y="1810" />
            </Array>
          </mxGeometry>
        </mxCell>
        <mxCell id="fY21hBZiSp-cvhp-OEF5-76" value="&lt;span style=&quot;font-size: 18px&quot;&gt;审核结果明细查询&lt;/span&gt;" style="edgeLabel;html=1;align=center;verticalAlign=middle;resizable=0;points=[];" vertex="1" connectable="0" parent="fY21hBZiSp-cvhp-OEF5-75">
          <mxGeometry x="-0.384" y="-1" relative="1" as="geometry">
            <mxPoint x="153" y="-0.91" as="offset" />
          </mxGeometry>
        </mxCell>
        <mxCell id="fY21hBZiSp-cvhp-OEF5-84" value="是" style="edgeLabel;html=1;align=center;verticalAlign=middle;resizable=0;points=[];fontSize=18;" vertex="1" connectable="0" parent="fY21hBZiSp-cvhp-OEF5-75">
          <mxGeometry x="-0.8627" relative="1" as="geometry">
            <mxPoint as="offset" />
          </mxGeometry>
        </mxCell>
        <mxCell id="fY21hBZiSp-cvhp-OEF5-79" value="&lt;font color=&quot;#ff0000&quot;&gt;&lt;span style=&quot;font-size: 18px&quot;&gt;I9000002（智能审核结果查询&lt;/span&gt;&lt;span style=&quot;font-size: 18px&quot;&gt;）&lt;/span&gt;&lt;/font&gt;" style="rounded=0;whiteSpace=wrap;html=1;" vertex="1" parent="1">
          <mxGeometry x="655" y="1580" width="120" height="60" as="geometry" />
        </mxCell>
        <mxCell id="fY21hBZiSp-cvhp-OEF5-82" value="" style="endArrow=classic;html=1;strokeColor=#000000;exitX=0.5;exitY=1;exitDx=0;exitDy=0;entryX=0;entryY=0.5;entryDx=0;entryDy=0;rounded=0;" edge="1" parent="1" source="fY21hBZiSp-cvhp-OEF5-59">
          <mxGeometry width="50" height="50" relative="1" as="geometry">
            <mxPoint x="405" y="1609.5" as="sourcePoint" />
            <mxPoint x="655" y="1609.5" as="targetPoint" />
            <Array as="points">
              <mxPoint x="345" y="1610" />
            </Array>
          </mxGeometry>
        </mxCell>
        <mxCell id="fY21hBZiSp-cvhp-OEF5-83" value="&lt;span style=&quot;font-size: 18px&quot;&gt;智能审核结果查询&lt;/span&gt;" style="edgeLabel;html=1;align=center;verticalAlign=middle;resizable=0;points=[];" vertex="1" connectable="0" parent="fY21hBZiSp-cvhp-OEF5-82">
          <mxGeometry x="-0.384" y="-1" relative="1" as="geometry">
            <mxPoint x="145" y="-0.94" as="offset" />
          </mxGeometry>
        </mxCell>
        <mxCell id="fY21hBZiSp-cvhp-OEF5-85" value="" style="endArrow=classic;html=1;strokeColor=#000000;exitX=0.5;exitY=1;exitDx=0;exitDy=0;rounded=0;entryX=1;entryY=0.5;entryDx=0;entryDy=0;entryPerimeter=0;" edge="1" parent="1" source="fY21hBZiSp-cvhp-OEF5-73" target="fY21hBZiSp-cvhp-OEF5-65">
          <mxGeometry width="50" height="50" relative="1" as="geometry">
            <mxPoint x="715" y="1850" as="sourcePoint" />
            <mxPoint x="435" y="1900" as="targetPoint" />
            <Array as="points">
              <mxPoint x="715" y="1900" />
            </Array>
          </mxGeometry>
        </mxCell>
        <mxCell id="fY21hBZiSp-cvhp-OEF5-86" value="&lt;font style=&quot;font-size: 18px&quot;&gt;返回审核明细结果&lt;/font&gt;" style="edgeLabel;html=1;align=center;verticalAlign=middle;resizable=0;points=[];" vertex="1" connectable="0" parent="fY21hBZiSp-cvhp-OEF5-85">
          <mxGeometry x="-0.0718" y="-2" relative="1" as="geometry">
            <mxPoint x="-73" y="2" as="offset" />
          </mxGeometry>
        </mxCell>
      </root>
    </mxGraphModel>
  </diagram>
</mxfile>
